<svg viewBox="0 0 300 300" xmlns="http://www.w3.org/2000/svg">
<rect fill="blue" height="20" width="8.968609865470851" x="100" y="0"/>
<text x="0" y="15">
css
</text>
<rect fill="blue" height="20" width="1.7937219730941705" x="100" y="30"/>
<text x="0" y="45">
elm
</text>
<rect fill="blue" height="20" width="26.905829596412556" x="100" y="60"/>
<text x="0" y="75">
go
</text>
<rect fill="blue" height="20" width="1.7937219730941705" x="100" y="90"/>
<text x="0" y="105">
haskell
</text>
<rect fill="blue" height="20" width="17.937219730941703" x="100" y="120"/>
<text x="0" y="135">
html
</text>
<rect fill="blue" height="20" width="0.8968609865470852" x="100" y="150"/>
<text x="0" y="165">
ocaml
</text>
<rect fill="blue" height="20" width="80.71748878923766" x="100" y="180"/>
<text x="0" y="195">
python
</text>
<rect fill="blue" height="20" width="4.484304932735426" x="100" y="210"/>
<text x="0" y="225">
rust
</text>
<rect fill="blue" height="20" width="53.81165919282511" x="100" y="240"/>
<text x="0" y="255">
typescript
</text>
<rect fill="blue" height="20" width="2.690582959641256" x="100" y="270"/>
<text x="0" y="285">
yaml
</text>
</svg>
